<svg id="OUTLINES" xmlns="http://www.w3.org/2000/svg" viewBox="0 0 110 48"><defs><style>.cls-1{fill:#fff;}.cls-2{fill:#6ad8ca;}</style></defs><title>HOLIDAY-2260-Holiday-Header-Design</title><path class="cls-1" d="M19,13h-3l-.22.17L15,15.55l.12.18h1.52l1.38-.44-.85,2.94L16,17.8H14.56l-.22.17-.95,3.28V23H10l.69-1.38,2.68-9.33V10.89h7v2.59Z"/><path class="cls-1" d="M29.69,15.9l-2.38,1.81v3.63L27.86,23H24.8V18.49l-.31-.17h-1.6l-.21.17-.9,3.11V23H18.5l.69-1.38,2.68-9.33V10.89H29L30.5,13Zm-2.47-2.59L26.7,13H24.42l-.22.17-.83,2.94.12.17h2.3l.69-.34.6-.61.4-1.38Z"/><path class="cls-1" d="M38.69,13h-3l-.23.17-.59,2.08.13.17h1.5L37.86,15,37,17.88l-1.16-.43H34.39l-.23.18-.83,2.85.18.25h3.23l1.81-.6L36.82,23H29.74l.69-1.38,2.68-9.33V10.89h7v2.59Z"/><path class="cls-1" d="M47.86,13h-3l-.23.17L44,15.21l.12.17h1.5L47,15l-.83,2.93L45,17.45H43.56l-.23.18-.83,2.85.18.25h3.23l1.81-.6L46,23H38.91l.69-1.38,2.68-9.33V10.89h7v2.59Z"/><path class="cls-1" d="M61.05,15.73l-6.56,5,.43-.08h3.72L60.45,20,58.67,23H52l-.61-2.07,7.39-6.13.26-.87-.26-.6L58.26,13H55.79l-1.9.61,1.64-2.68h4.83L61.83,13Z"/><path class="cls-1" d="M66.77,18.14H61.93l.61-1.9h4.83Z"/><path class="cls-1" d="M77,20.56,73.87,23H67.13l.69-1.38,2.68-9.33V10.89h6.82l1.73,2.42Zm-1.12-7.25L75.34,13h-2.2l-.22.17-2.13,7.35.18.25h2.12l.69-.34.61-.6,1.72-5.88Z"/><path class="cls-1" d="M87.7,12V21.6L88,23H84.72l.57-1.38V20.22L85.16,20H81.81l-.24.18-.69,1.38L80.66,23H77.25l1.09-1.38L83.56,12V10.89h4.73ZM82.87,17.8,83,18h2.07l.23-.17V13.31l.08-.52Z"/><path class="cls-1" d="M98.6,12.27l-4.49,5.79-1,3.37V23H89.53l1-1.55,1-3.29-1.38-5.87-.59-1.38H92.9l-.17,1.21.69,3.37v.34l.17-.34,2.59-3.37.52-1.21H100Z"/><path class="cls-1" d="M19.79,38.52H14.57l-1.05-3.13,1.94.66h2.62l.76-.38.38-.75V33.68L18.56,33l-2.85-.67-1.81-1.8V27.7l2.47-2.47h4.94l1,2.85-1.71-.57H18.08l-.76.38-.38.76v.76l.67.66,2.85.67,1.8,1.8v3.51Z"/><path class="cls-1" d="M30.62,38.52,31,37V32.64l-.19-.19H27.58l-.19.19V37l.38,1.52H24.16L24.54,37V26.75l-.38-1.52h3.61l-.38,1.52V30l.19.19h3.23L31,30V26.75l-.38-1.52h3.61l-.38,1.52V37l.38,1.52Z"/><path class="cls-1" d="M36.51,38.52,36.89,37V26.75l-.38-1.52h3.61l-.38,1.52V37l.38,1.52Z"/><path class="cls-1" d="M49.81,33.59h-4l-.19.19v2.85l.48,1.89H42.4L42.78,37V26.75l-.38-1.52h7.79l2.28,2.28v3.42Zm-.38-4.85L49.05,28l-.95-.47H45.82l-.19.19v3.23l.19.19H48.1l.95-.48.38-.76Z"/><path class="cls-1" d="M61,33.59H57l-.19.19v2.85l.47,1.89h-3.7L54,37V26.75l-.38-1.52H61.4l2.28,2.28v3.42Zm-.38-4.85L60.26,28l-.95-.47H57l-.19.19v3.23l.19.19h2.28l.95-.48.38-.76Z"/><path class="cls-1" d="M64.82,38.52,65.2,37V26.75l-.38-1.52h3.61l-.38,1.52V37l.38,1.52Z"/><path class="cls-1" d="M80.4,26.75V38.52H77.93l-4.09-8.16-.38-.95.1.95V37l.38,1.52H70.71L71.09,37V26.75l-.48-1.52h3.71l3.32,6.65.38.95-.09-.95V26.75l-.38-1.52h3.23Z"/><path class="cls-1" d="M92.56,32.45v2.47l.18,1.13-2.46,2.47H85.53l-2.47-2.47V27.89l2.66-2.66H91l1,3.13-2-.66h-2.6l-1,.47-.47.95v5.8l.38.75.76.38h1.9l.57-.56V32.83L89,31.31h4.17Z"/><path class="cls-2" d="M8.06,9.86,8,3.85a.8.8,0,0,1,.57-.78.76.76,0,0,1,.95.73l.07,6.08a.76.76,0,0,1-.94.75A.78.78,0,0,1,8.06,9.86Z"/><path class="cls-2" d="M11.91,7.53l-6,.07A.78.78,0,0,1,5.09,7a.76.76,0,0,1,.72-1L11.86,6a.8.8,0,0,1,.78.56A.77.77,0,0,1,11.91,7.53Z"/><path class="cls-2" d="M101.72,15.36a.86.86,0,0,1-.88-.86.89.89,0,0,1,.25-.62l3.45-3.53a.87.87,0,0,1,1.25,1.22l-3.45,3.53A.87.87,0,0,1,101.72,15.36Z"/><path class="cls-2" d="M108.71,15.28a.81.81,0,0,1-.62-.25l-3.53-3.45a.86.86,0,0,1,0-1.23.88.88,0,0,1,1.22,0l3.53,3.46a.87.87,0,0,1,0,1.23A.83.83,0,0,1,108.71,15.28Z"/><path class="cls-2" d="M105.25,18.82a.9.9,0,0,1-.62-.25l-3.53-3.46a.87.87,0,0,1,1.22-1.25l3.53,3.46a.86.86,0,0,1,0,1.23A.89.89,0,0,1,105.25,18.82Z"/><path class="cls-2" d="M105.25,18.82a.89.89,0,0,1-.88-.87.9.9,0,0,1,.25-.62l3.45-3.53A.87.87,0,0,1,109.32,15l-3.45,3.53A.89.89,0,0,1,105.25,18.82Z"/><path class="cls-2" d="M8.2,41.76a.7.7,0,0,1-.71-.7.74.74,0,0,1,.2-.5l2.77-2.83a.7.7,0,0,1,1,0,.71.71,0,0,1,0,1L8.69,41.55A.75.75,0,0,1,8.2,41.76Z"/><path class="cls-2" d="M11,41.72a.62.62,0,0,1-.49-.2L7.67,38.75a.7.7,0,0,1,1-1l2.84,2.77a.71.71,0,0,1,0,1A.67.67,0,0,1,11,41.72Z"/><path class="cls-2" d="M98.2,24.17a.75.75,0,0,1-.76-.74.74.74,0,0,1,.21-.53l3-3a.75.75,0,0,1,1.07,1.05l-3,3A.68.68,0,0,1,98.2,24.17Z"/><path class="cls-2" d="M101.2,24.14a.79.79,0,0,1-.54-.22l-3-3a.75.75,0,0,1,1.05-1.07l3,3a.75.75,0,0,1,0,1.06A.8.8,0,0,1,101.2,24.14Z"/></svg>