<svg id="OUTLINES" xmlns="http://www.w3.org/2000/svg" viewBox="0 0 110 48"><defs><style>.cls-1{fill:#fff;}.cls-2{fill:#f9a03f;}</style></defs><title>HOLIDAY-2260-Holiday-Header-Design</title><path class="cls-1" d="M24.22,12.45l-2.59,9H20.14l-1.62-6-.07-.51-.07.51-1.62,6H15.27l-2.59-8.95-.58-1.16H15l-.15,1.16,1.16,4,.07.58.07-.58,1.44-5.2h1.88l1.44,5.2.08.58.07-.58,1.15-4-.14-1.16H24.8Z"/><path class="cls-1" d="M31.39,21.4H25.47l.29-1.16V12.45l-.29-1.16h5.77L32,13.46,30.67,13h-2.6l-.15.15V14.9l.15.14h1.22l1.09-.36v2.46l-1.09-.36H28.07l-.15.14V19.3l.22.22h2.53L32.18,19Z"/><path class="cls-1" d="M34.8,14.25l-1.3.65h-.58l.21-.43.73-.36.36-.73V13h-.8l-.57-.57v-1.3l.57-.58h1.45l.57.58V13Z"/><path class="cls-1" d="M42.82,21.4H37.19l.29-1.16V12.45l-.29-1.16H40l-.37,1.45V19.3l.22.22H42.1L43.61,19Z"/><path class="cls-1" d="M49.77,21.4H44.14l.28-1.16V12.45l-.28-1.16H47l-.36,1.45V19.3l.22.22H49L50.56,19Z"/><path class="cls-1" d="M61.56,21.4l.29-1.16V15l.07-.57-.21.57-2.46,5.63h-.07L56.73,15l-.22-.57.07.57v5.2l.29,1.16H54.42l.28-1.16V12.45l-.28-1.16h2.81l2,4.58.07.33.08-.33,2-4.58h2.81l-.29,1.16v7.79l.29,1.16Z"/><path class="cls-1" d="M71.1,21.4l.15-1.16L71,19.09l-.14-.15H68.07l-.14.15-.29,1.15.15,1.16H65.11l.58-1.16,2.17-8-.22-.94h3.9l-.22.94,2.17,8,.57,1.16Zm-1.58-8.23-.08-.43-.07.43-.94,3.9.15.14h1.73l.15-.14Z"/><path class="cls-1" d="M79.71,13.17h-1.3l-.14.14V20.1l.43,1.3h-3l.43-1.3V13.31L76,13.17h-1.3l-1.52.5.8-2.38h6.49l.8,2.38Z"/><path class="cls-1" d="M87.81,21.4H84.06l-2-2V13.31l2-2h3.6l.8,2.38L87,13.17H85.43l-.72.36-.37.72v4.19l.37.72.72.36h1.66L88.6,19Z"/><path class="cls-1" d="M94.61,21.4l.29-1.16V16.92l-.15-.14H92.3l-.15.14v3.32l.29,1.16H89.7L90,20.24V12.45l-.29-1.16h2.74l-.29,1.16V14.9l.15.14h2.45l.15-.14V12.45l-.29-1.16h2.74l-.29,1.16v7.79l.29,1.16Z"/><path class="cls-1" d="M19.87,25.87v9.41l.29,1.35H16.94l.56-1.35V33.92l-.12-.17H14.09l-.24.17-.68,1.36L13,36.63H9.61l1.07-1.35,5.12-9.41v-1.1h4.65Zm-4.75,5.68.12.17h2l.22-.17V27.14l.08-.51Z"/><path class="cls-1" d="M33,26.12,30,36.63H28.14l-1.69-7.29-.1-.84-.17.84-1.7,5.94v1.35H21.57l.67-1.35,2.63-9.16V24.77h2.88l1.41,6,.12.77.17-.85,1.3-4.58V24.77h2.94Z"/><path class="cls-1" d="M43.43,26.12,39,31.8l-.94,3.31v1.52H34.53l1-1.52.93-3.22-1.35-5.77-.58-1.35h3.29L37.67,26l.68,3.31v.34l.17-.34L41.06,26l.51-1.18h3.22Z"/><path class="cls-1" d="M58.1,29.85l-3.05,2.38H51.44l-.22.16-.75,2.55v1.69h-3.3l.67-1.35,2.63-9.16V24.77h7l1.48,2Zm-2.37-2.71-.51-.34H53l-.22.17L52,29.85l.11.17h2.26l.68-.34.59-.59L56,27.73Z"/><path class="cls-1" d="M69.17,29.68l-2.34,1.78V35l.54,1.61h-3v-4.4l-.3-.17H62.49l-.2.17-.88,3.05v1.35H58.18l.68-1.35,2.63-9.16V24.77h7l1.48,2Zm-2.42-2.54-.51-.34H64l-.22.17L63,29.85l.12.17h2.26l.68-.34.59-.59L67,27.73Z"/><path class="cls-1" d="M75.73,26.12,73.1,35.28v1.35H69.88l.68-1.35,2.63-9.16V24.77h3.22Z"/><path class="cls-1" d="M84.63,27h-2l-.68.34-.59.59L79.8,33.33l.29.67.64.43h2.12l1.78-.59-1.69,2.79H78.53l-1.7-2.37,2-7.12,3-2.37h4.32v2.79Z"/><path class="cls-1" d="M94.6,26.8h-3l-.22.17-.57,2,.12.17h1.47l1.36-.42L93,31.63l-1.13-.42H90.38l-.22.17-.82,2.79.17.26h3.17l1.78-.59-1.69,2.79h-7l.68-1.35,2.62-9.16V24.77H96v2.54Z"/><path class="cls-2" d="M107.76,34h-3l2.79-6.7a.36.36,0,0,0-.58-.39l-8.83,8.83a.35.35,0,0,0,.24.6h3l-2.79,6.72a.36.36,0,0,0,.58.39L108,34.61A.36.36,0,0,0,107.76,34Z"/><path class="cls-2" d="M6.72,10.12A.72.72,0,0,1,6,9.4a.71.71,0,0,1,.21-.51L9.07,5.94a.73.73,0,0,1,1,1l-2.88,3A.75.75,0,0,1,6.72,10.12Z"/><path class="cls-2" d="M9.63,10.09a.73.73,0,0,1-.52-.21L6.17,7a.72.72,0,0,1,0-1,.73.73,0,0,1,1,0l3,2.88a.73.73,0,0,1,0,1A.7.7,0,0,1,9.63,10.09Z"/><path class="cls-2" d="M90.78,45.17a.73.73,0,0,1-.73-.72.71.71,0,0,1,.2-.52l2.88-3a.73.73,0,0,1,1,0,.71.71,0,0,1,0,1l-2.88,3A.75.75,0,0,1,90.78,45.17Z"/><path class="cls-2" d="M93.69,45.13a.69.69,0,0,1-.51-.2l-3-2.88a.73.73,0,0,1,1-1l3,2.88a.74.74,0,0,1,0,1A.73.73,0,0,1,93.69,45.13Z"/></svg>