<svg id="OUTLINES" xmlns="http://www.w3.org/2000/svg" viewBox="0 0 110 48"><defs><style>.cls-1{fill:#7bc950;}.cls-2{fill:#fff;}</style></defs><title>HOLIDAY-2260-Holiday-Header-Design</title><path class="cls-1" d="M101.43,8H99l2.24-5.37a.29.29,0,0,0-.47-.31L93.72,9.41a.28.28,0,0,0,.19.48h2.41l-2.24,5.38a.29.29,0,0,0,.47.31l7.07-7.07A.29.29,0,0,0,101.43,8Z"/><path class="cls-2" d="M30.33,6.08H27.91l-.18.14-.47,1.66.09.14h1.21l1.11-.35L29,10l-.93-.35H26.88l-.18.14L26,12.11l.14.2h2.59l1.45-.48-1.38,2.29H23.16L23.71,13l2.15-7.48V4.42h5.61V6.5Z"/><path class="cls-2" d="M39.1,5.39,36,9.06l1.25,4.09.56,1H34.94l.14-1-.66-2.22v-.28l-.14.28-1.9,2.22-.41,1H29.13l1.17-1,3.54-4.09L32.73,5.39l-.56-1H35l-.14,1,.49,1.94V7.6l.14-.27L37,5.39l.42-1h2.84Z"/><path class="cls-2" d="M45.83,6.22H44.54l-.16.14-1.87,6.51v1.25H39.6l.83-1.25L42.3,6.36l-.11-.14H40.91l-1.52.48,1.39-2.28h6.3V6.7Z"/><path class="cls-2" d="M53,6.08H50.53l-.18.14-.47,1.66L50,8h1.21l1.11-.35L51.62,10l-.93-.35H49.5l-.18.14-.66,2.29.14.2h2.59l1.45-.48-1.38,2.29H45.78L46.33,13l2.15-7.48V4.42h5.61V6.5Z"/><path class="cls-2" d="M62.48,5.53,60,14.12H58.51l-1.39-6L57,7.46l-.14.7L55.51,13v1.11H53.13L53.69,13l2.14-7.48V4.42h2.36l1.15,4.92.1.62.13-.69,1.07-3.74V4.42H63Z"/><path class="cls-2" d="M70.18,12.18l-2.49,1.94h-5.4L62.84,13,65,5.53V4.42h5.47l1.39,1.94Zm-.9-5.82-.41-.28H67.11l-.18.14-1.71,5.89.14.2h1.71l.55-.27.49-.49,1.38-4.71Z"/><path class="cls-2" d="M78.76,6.08H76.33l-.18.14-.47,1.66.1.14H77l1.11-.35L77.43,10l-.93-.35H75.31l-.18.14-.67,2.29.14.2h2.59l1.46-.48-1.39,2.29H71.58L72.14,13l2.14-7.48V4.42h5.61V6.5Z"/><path class="cls-2" d="M86.83,12.18l-2.49,1.94h-5.4L79.49,13l2.15-7.48V4.42h5.47L88.5,6.36Zm-.9-5.82-.41-.28H83.76l-.18.14-1.71,5.89.14.2h1.71l.55-.27.49-.49,1.38-4.71Z"/><path class="cls-2" d="M30.79,28.66l-1.42-4.32L29,24.17H27.79l-.16.17v3L28,28.66H24.8l.34-1.33v-9L24.8,17h6.82l2,2v2.83l-1.83,1.82L33,27.08l.91,1.58ZM31,20.1l-.33-.66L29.79,19h-2l-.16.17V22l.16.17h2l.83-.42L31,21.1Z"/><path class="cls-2" d="M42.75,28.66H35.94l.33-1.33v-9L35.94,17h6.65l.83,2.49-1.5-.5h-3l-.16.17v2l.16.17h1.41l1.25-.42v2.83l-1.25-.42H38.93l-.16.17v2.74l.24.25h2.91l1.75-.58Z"/><path class="cls-2" d="M51.23,19.19H49.74l-.17.16v7.81l.5,1.5H46.58l.5-1.5V19.35l-.17-.16H45.42l-1.75.58L44.58,17h7.48L53,19.77Z"/><path class="cls-2" d="M62.7,18.36V25.5l.17,1-2.16,2.16H56.38L54.22,26.5l.17-1V18.36L54.06,17H57.3L57,18.36V25.5l.33.67.66.33h1.25l.66-.33.34-.67V18.36L59.87,17H63Z"/><path class="cls-2" d="M71.51,28.66,70.1,24.34l-.33-.17H68.52l-.17.17v3l.34,1.33H65.53l.33-1.33v-9L65.53,17h6.81l2,2v2.83l-1.83,1.82,1.24,3.41.92,1.58Zm.17-8.56-.34-.66L70.51,19h-2l-.17.17V22l.17.17h2l.83-.42.34-.66Z"/><path class="cls-2" d="M85.14,18.36v10.3H83l-3.57-7.15-.33-.83.08.83v5.82l.33,1.33H76.67L77,27.33v-9L76.58,17h3.24l2.91,5.81.33.83L83,22.84V18.36L82.65,17h2.82Z"/><path class="cls-2" d="M38.23,33.06l-2.74,9.45H33.92l-1.71-6.32-.08-.54-.07.54-1.71,6.32H28.78L26,33.06l-.61-1.22h3.05l-.16,1.22,1.22,4.27.08.61.08-.61,1.52-5.49h2l1.53,5.49.07.61.08-.61,1.22-4.27L36,31.84h2.89Z"/><path class="cls-2" d="M39.22,42.51l.3-1.22V33.06l-.3-1.22h2.89l-.3,1.22v8.23l.3,1.22Z"/><path class="cls-2" d="M51.72,33.06v9.45h-2L46.46,36l-.31-.77.08.77v5.33l.3,1.22H43.94l.31-1.22V33.06l-.38-1.22h3l2.66,5.34.31.76-.08-.76V33.06l-.3-1.22H52Z"/><path class="cls-2" d="M59.79,42.51H53.85l.3-1.22V33.06l-.3-1.22h5.94L61.92,34v6.4Zm-.3-7.7-.39-.76-.76-.38H56.67l-.16.15V40.3l.23.23h1.6l.76-.38.39-.76Z"/><path class="cls-2" d="M69.69,42.51h-4l-2-2V33.82l2-2h4l2,2v6.71Zm-.45-7.92L68.93,34l-.61-.31H67.1l-.61.31-.3.61v5l.3.61.61.3h1.22l.61-.3.31-.61Z"/><path class="cls-2" d="M84.86,33.06l-2.75,9.45H80.54l-1.7-6.32-.08-.54-.08.54L77,42.51H75.41l-2.75-9.45-.61-1.22h3L75,33.06l1.22,4.27.07.61.08-.61,1.52-5.49h2l1.52,5.49.08.61.07-.61,1.22-4.27-.15-1.22h2.9Z"/><path class="cls-1" d="M98.53,20.65a.83.83,0,0,1-.59-1.41l3.26-3.34a.83.83,0,0,1,1.18,1.16L99.12,20.4A.93.93,0,0,1,98.53,20.65Z"/><path class="cls-1" d="M101.84,20.61a.82.82,0,0,1-.59-.24l-3.34-3.26a.83.83,0,0,1,1.16-1.18l3.33,3.26a.82.82,0,0,1,0,1.17A.81.81,0,0,1,101.84,20.61Z"/><path class="cls-1" d="M8.56,37a1.81,1.81,0,0,1-1.31-3.07l7.15-7.31A1.81,1.81,0,0,1,17,29.1L9.83,36.41A1.82,1.82,0,0,1,8.56,37Z"/><path class="cls-1" d="M15.79,36.87a1.8,1.8,0,0,1-1.28-.52L7.2,29.21a1.81,1.81,0,0,1,2.52-2.59L17,33.77a1.81,1.81,0,0,1-1.24,3.1Z"/></svg>